<?xml version="1.0" standalone="no"?>
<!DOCTYPE svg PUBLIC "-//W3C//DTD SVG 20010904//EN"
 "http://www.w3.org/TR/2001/REC-SVG-20010904/DTD/svg10.dtd">
<svg version="1.0" xmlns="http://www.w3.org/2000/svg"
 width="288.000000pt" height="288.000000pt" viewBox="0 0 288.000000 288.000000"
 preserveAspectRatio="xMidYMid meet">

<g transform="translate(0.000000,288.000000) scale(0.100000,-0.100000)"
fill="#000000" stroke="none">
<path d="M0 1440 l0 -1440 1440 0 1440 0 0 1440 0 1440 -1440 0 -1440 0 0
-1440z m1025 830 c3 -5 -1 -10 -10 -10 -9 0 -13 5 -10 10 3 6 8 10 10 10 2 0
7 -4 10 -10z m100 -220 c3 -5 1 -10 -4 -10 -6 0 -11 5 -11 10 0 6 2 10 4 10 3
0 8 -4 11 -10z m758 -75 c10 -21 19 -60 20 -86 1 -27 5 -49 9 -49 6 0 20 -119
20 -170 -1 -59 -9 -151 -15 -156 -14 -14 -32 14 -33 51 -4 132 -8 182 -21 290
-8 66 -17 131 -20 144 -9 37 19 21 40 -24z m107 -19 c0 -5 7 -14 15 -20 32
-23 45 -400 14 -380 -5 3 -9 -2 -9 -10 0 -9 -6 -13 -15 -10 -12 5 -14 33 -14
147 0 92 -6 160 -15 192 -8 28 -16 69 -19 93 l-5 42 24 -22 c13 -13 24 -27 24
-32z m-845 24 c0 -11 -9 -14 -30 -12 -23 2 -27 1 -15 -7 9 -7 10 -11 3 -11 -6
0 -15 5 -18 10 -11 17 -37 11 -42 -10 -6 -22 -23 -26 -40 -9 -16 16 -43 3 -43
-21 0 -14 -7 -20 -22 -20 -22 -1 -22 -1 -5 -14 12 -9 14 -16 8 -21 -6 -3 -11
-1 -11 4 0 6 -7 11 -16 11 -8 0 -12 -5 -8 -11 3 -6 1 -15 -5 -19 -7 -4 -13
-13 -14 -21 -2 -8 -6 -20 -11 -27 -4 -7 -5 -19 -2 -27 3 -8 1 -15 -4 -15 -6 0
-10 -11 -10 -25 0 -14 4 -25 8 -25 5 0 7 -25 4 -55 -3 -37 -1 -55 7 -55 6 0
11 -8 11 -19 0 -23 25 -45 41 -36 8 6 8 2 0 -14 -15 -28 -3 -51 14 -27 11 15
13 14 19 -10 4 -14 10 -24 13 -20 3 3 13 0 21 -7 13 -10 14 -9 7 2 -6 11 -2
12 21 6 16 -4 48 -8 72 -10 24 -2 46 -6 49 -9 3 -3 12 -1 20 6 24 19 25 1 2
-21 -23 -21 -39 -24 -119 -21 -73 3 -222 94 -227 140 -1 8 -6 39 -12 69 -14
71 -13 137 3 184 14 38 64 119 79 125 4 2 5 7 2 12 -3 4 2 13 10 20 10 9 15 9
15 1 0 -6 -5 -11 -11 -11 -5 0 -7 -4 -4 -10 3 -5 22 -1 46 12 73 38 194 49
194 18z m510 -16 c2 -16 4 -30 6 -31 6 -9 3 -29 -5 -35 -6 -4 -6 -18 0 -40 11
-35 20 -257 10 -247 -3 3 -7 24 -8 47 -1 29 -6 42 -16 42 -11 0 -13 8 -8 34 5
23 2 36 -6 40 -7 3 -3 3 10 0 21 -5 21 -3 11 23 -6 15 -18 37 -27 47 -16 18
-16 19 2 12 14 -5 17 -3 10 6 -16 22 -3 151 13 135 2 -3 6 -18 8 -33z m-425
-24 c0 -13 -30 -13 -50 0 -11 7 -7 10 18 10 17 0 32 -4 32 -10z m15 -20 c-3
-5 2 -10 11 -10 10 0 15 -3 11 -6 -10 -10 -39 5 -32 16 3 5 8 10 11 10 3 0 2
-4 -1 -10z m-235 -10 c0 -5 -5 -10 -11 -10 -5 0 -7 5 -4 10 3 6 8 10 11 10 2
0 4 -4 4 -10z m798 -10 c17 -28 15 -304 -2 -355 -8 -21 -16 -34 -18 -29 -3 5
-6 83 -6 174 0 91 -1 170 -2 175 -5 20 0 55 8 55 4 0 13 -9 20 -20z m-518 -20
c0 -5 -5 -10 -11 -10 -5 0 -7 5 -4 10 3 6 8 10 11 10 2 0 4 -4 4 -10z m442
-12 c0 -7 2 -20 3 -28 1 -8 -2 -23 -7 -32 -6 -12 -5 -18 2 -18 6 0 10 -15 10
-32 0 -18 0 -42 0 -53 0 -11 0 -49 0 -85 -1 -59 -3 -63 -16 -46 -8 11 -14 31
-13 45 0 14 -2 71 -5 126 -3 55 -3 108 0 118 6 20 23 23 26 5z m-398 -264 c-7
-3 -10 -13 -7 -23 2 -10 -2 -25 -11 -33 -8 -9 -14 -17 -12 -19 2 -2 -8 -15
-21 -29 l-25 -25 26 43 c18 29 24 50 20 67 -5 21 -3 25 17 24 13 0 19 -3 13
-5z m656 -84 c0 -5 -4 -10 -10 -10 -5 0 -10 5 -10 10 0 6 5 10 10 10 6 0 10
-4 10 -10z m-1090 -180 c0 -5 -4 -10 -10 -10 -5 0 -10 5 -10 10 0 6 5 10 10
10 6 0 10 -4 10 -10z m-52 -226 c18 -8 53 -16 80 -17 47 -2 47 -2 44 -34 -3
-20 -10 -33 -19 -33 -8 0 -12 -4 -8 -10 10 -17 -6 -62 -21 -56 -8 3 -14 1 -14
-4 0 -5 -7 -7 -15 -4 -8 4 -15 12 -15 19 0 6 -9 20 -19 29 -11 10 -23 32 -27
49 -4 18 -13 42 -21 54 -18 27 -8 29 35 7z m1282 -10 c0 -8 -4 -14 -10 -14 -5
0 -10 5 -10 11 0 5 -4 7 -10 4 -5 -3 -10 0 -10 8 0 10 7 13 20 10 11 -3 20
-12 20 -19z m-1093 -8 c-4 -11 8 -13 61 -11 37 2 74 5 81 7 24 5 24 -29 2 -85
-11 -29 -28 -79 -37 -112 -9 -33 -20 -64 -24 -69 -9 -9 -80 94 -80 117 0 7 -5
18 -11 24 -5 5 -13 40 -16 77 -4 57 -3 66 12 66 11 0 15 -5 12 -14z m241 5 c8
-4 12 -12 10 -17 -4 -10 70 -26 99 -21 12 2 24 -2 27 -9 3 -8 1 -14 -5 -14 -6
0 -8 -9 -4 -20 7 -24 -39 -183 -58 -198 -11 -9 -20 3 -47 56 -18 37 -36 69
-40 72 -26 18 -43 120 -26 149 8 13 26 14 44 2z m679 -8 c4 -10 -2 -23 -18
-36 -16 -13 -20 -21 -11 -24 6 -3 12 -11 12 -18 0 -18 -30 -34 -49 -27 -8 2
-11 0 -7 -6 3 -6 -2 -13 -11 -15 -14 -4 -13 -5 5 -6 21 -1 33 -31 12 -31 -5 0
-10 -7 -10 -15 0 -8 -7 -15 -16 -15 -13 0 -14 -3 -5 -14 9 -10 9 -16 1 -21
-14 -8 -10 -13 -49 59 -18 33 -41 71 -52 84 -15 20 -17 27 -7 34 12 7 5 12
-14 10 -3 -1 -9 5 -12 13 -3 8 0 15 7 15 21 -1 44 -24 39 -40 -4 -13 -3 -13
11 -2 13 11 17 11 24 -1 4 -8 20 -16 36 -19 22 -4 25 -3 16 8 -6 8 -15 12 -19
9 -5 -3 -11 -2 -13 2 -3 5 13 17 36 28 30 15 41 17 45 7 2 -6 8 -12 14 -12 6
0 7 7 4 16 -3 9 -4 20 0 25 8 14 24 11 31 -8z m103 3 c6 -8 17 -13 25 -10 7 3
16 1 20 -5 3 -6 2 -11 -4 -11 -6 0 -8 -6 -5 -13 2 -7 -5 -22 -18 -33 l-22 -19
17 27 c19 30 18 31 -43 60 -34 16 -34 16 -9 17 15 1 32 -5 39 -13z m-572 -16
c12 -11 30 -20 41 -20 11 0 23 -4 26 -10 3 -5 13 -10 22 -10 9 0 14 3 10 6
-10 10 16 30 42 31 25 2 58 -25 55 -44 -1 -7 -2 -18 -3 -24 0 -5 -5 -7 -11 -4
-6 4 -10 -5 -10 -19 0 -30 -8 -33 -26 -8 -13 15 -13 15 -10 -8 2 -14 -1 -31
-6 -37 -7 -9 -7 -13 1 -13 7 0 9 -5 6 -10 -4 -7 -13 -6 -26 1 -16 8 -18 13 -8
25 14 18 -1 18 -25 1 -17 -13 -17 -14 -1 -30 9 -10 21 -15 26 -12 5 4 9 -1 9
-9 0 -14 -12 -20 -32 -17 -12 2 -10 -17 2 -24 6 -3 10 -14 10 -23 -1 -33 -35
22 -59 96 -14 40 -28 72 -31 72 -8 0 -25 41 -34 83 -7 32 2 34 32 7z m532 -20
c0 -11 -4 -20 -10 -20 -5 0 -10 9 -10 20 0 11 5 20 10 20 6 0 10 -9 10 -20z
m50 -5 c0 -2 -9 -3 -19 -2 -11 0 -18 5 -15 9 4 6 34 0 34 -7z m-1140 -114 c0
-14 -18 -23 -31 -15 -8 4 -7 9 2 15 18 11 29 11 29 0z m1120 -1 c0 -5 -5 -10
-11 -10 -5 0 -7 5 -4 10 3 6 8 10 11 10 2 0 4 -4 4 -10z m-36 -120 c15 -23 21
-40 14 -40 -6 0 -4 -6 6 -13 17 -12 17 -17 5 -50 -8 -23 -19 -37 -30 -37 -10
0 -19 -6 -22 -12 -3 -7 -4 4 -2 24 2 39 -9 67 -22 55 -4 -5 -2 -11 4 -15 7 -5
9 -13 4 -21 -5 -7 -13 -11 -18 -8 -14 9 -9 47 8 58 10 6 10 9 2 9 -19 0 -16
43 5 68 9 12 18 22 18 22 1 0 13 -18 28 -40z m-1024 -20 c0 -5 -5 -10 -11 -10
-5 0 -7 5 -4 10 3 6 8 10 11 10 2 0 4 -4 4 -10z m15 -39 c0 -8 -7 -17 -15 -21
-8 -4 -25 -12 -37 -18 -27 -14 -33 -15 -33 -3 0 5 14 14 31 20 22 8 30 15 25
27 -4 11 -1 14 12 12 9 -2 17 -9 17 -17z m168 -73 c7 -55 -8 -74 -50 -63 -18
4 -25 3 -18 -3 6 -6 18 -12 27 -14 14 -3 13 -7 -9 -33 -16 -19 -27 -26 -30
-17 -2 6 -9 10 -14 6 -5 -3 -9 0 -9 5 0 6 5 11 10 11 6 0 8 13 5 29 -4 23 3
40 30 75 19 26 35 52 35 58 0 30 18 -11 23 -54z m660 38 c3 -8 -1 -17 -9 -20
-23 -9 -24 -8 -24 14 0 23 25 27 33 6z m47 -76 c-12 -8 -13 -13 -2 -30 13 -22
3 -27 -16 -8 -8 8 -15 8 -24 1 -8 -6 -21 -7 -33 -2 -17 6 -17 8 -2 8 9 1 17 7
17 15 0 9 7 12 21 9 16 -4 20 -2 17 8 -2 8 -15 16 -28 17 l-24 4 24 13 c22 12
27 11 45 -6 17 -17 18 -21 5 -29z m80 31 c0 -5 3 -17 7 -27 4 -11 3 -15 -4
-11 -14 9 -24 47 -12 47 5 0 9 -4 9 -9z m-313 -36 c-15 -16 -19 -13 -11 9 3 9
10 13 15 10 5 -3 3 -11 -4 -19z m-334 -17 c-3 -16 -2 -19 4 -10 7 9 13 6 21
-13 7 -15 10 -31 7 -36 -4 -5 5 -13 20 -19 25 -10 49 -50 36 -60 -4 -3 -10
-13 -14 -22 -3 -10 -13 -18 -21 -18 -8 0 -16 -5 -18 -11 -2 -7 -12 -7 -31 0
-36 14 -34 31 3 26 17 -2 30 1 30 7 0 5 -6 8 -12 5 -7 -2 -21 2 -30 11 -13 11
-18 12 -18 2 0 -10 -3 -10 -15 0 -22 18 -19 50 5 50 11 0 20 -4 20 -10 0 -5 5
-10 10 -10 18 0 10 22 -10 27 -15 4 -18 11 -13 37 6 31 20 66 27 66 2 0 2 -10
-1 -22z m-136 -28 c-1 -13 -8 -20 -22 -19 -11 0 -14 3 -7 6 6 2 12 11 12 19 0
8 4 14 9 14 6 0 9 -9 8 -20z m498 0 c-4 -12 -2 -20 5 -20 6 0 8 -4 5 -10 -3
-5 -1 -10 6 -10 9 0 9 -3 0 -14 -9 -11 -9 -15 1 -18 8 -3 6 -7 -5 -11 -9 -3
-17 -2 -17 4 0 6 -4 7 -10 4 -5 -3 -10 1 -10 9 0 9 4 16 9 16 6 0 7 16 4 35
-4 24 -2 35 6 35 8 0 10 -8 6 -20z m-511 -39 c4 -5 -3 -7 -14 -4 -23 6 -26 13
-6 13 8 0 17 -4 20 -9z m20 -27 c9 -3 14 -10 11 -15 -7 -10 -35 0 -35 12 0 11
3 11 24 3z m491 -34 c6 0 -1 -9 -15 -20 -18 -13 -27 -15 -32 -7 -5 8 -8 8 -8
-3 0 -13 -2 -13 -9 -1 -15 23 -2 40 27 36 15 -2 32 -4 37 -5z m-242 -47 c-7
-2 -13 -9 -13 -14 0 -6 5 -7 10 -4 6 3 10 1 10 -5 0 -18 -34 -7 -38 13 -3 12
3 17 20 16 13 0 17 -3 11 -6z m291 -9 c5 -12 2 -15 -10 -10 -8 3 -27 6 -40 6
-35 0 -22 15 14 18 20 1 32 -3 36 -14z m-254 -59 c7 -9 8 -15 2 -15 -5 0 -12
7 -16 15 -3 8 -4 15 -2 15 2 0 9 -7 16 -15z"/>
<path d="M847 1833 c-10 -9 -9 -23 2 -23 5 0 11 7 15 15 5 15 -5 20 -17 8z"/>
<path d="M831 1773 c0 -25 1 -26 9 -8 12 27 12 35 0 35 -5 0 -10 -12 -9 -27z"/>
<path d="M826 1724 c-8 -20 -8 -24 2 -24 4 0 8 9 9 20 2 24 -3 26 -11 4z"/>
<path d="M880 1070 c0 -5 5 -10 10 -10 6 0 10 5 10 10 0 6 -4 10 -10 10 -5 0
-10 -4 -10 -10z"/>
<path d="M902 1029 c2 -6 8 -10 13 -10 5 0 11 4 13 10 2 6 -4 11 -13 11 -9 0
-15 -5 -13 -11z"/>
<path d="M870 1020 c0 -5 5 -10 11 -10 5 0 7 5 4 10 -3 6 -8 10 -11 10 -2 0
-4 -4 -4 -10z"/>
<path d="M1075 1070 c-3 -5 1 -10 10 -10 9 0 13 5 10 10 -3 6 -8 10 -10 10 -2
0 -7 -4 -10 -10z"/>
<path d="M1260 1060 c0 -5 5 -10 10 -10 6 0 10 5 10 10 0 6 -4 10 -10 10 -5 0
-10 -4 -10 -10z"/>
<path d="M1370 985 c7 -9 15 -13 17 -11 7 7 -7 26 -19 26 -6 0 -6 -6 2 -15z"/>
<path d="M1350 919 c0 -5 5 -7 10 -4 6 3 10 8 10 11 0 2 -4 4 -10 4 -5 0 -10
-5 -10 -11z"/>
<path d="M1885 1030 c-3 -5 1 -10 10 -10 9 0 13 5 10 10 -3 6 -8 10 -10 10 -2
0 -7 -4 -10 -10z"/>
<path d="M1790 1000 c0 -5 5 -10 11 -10 5 0 7 5 4 10 -3 6 -8 10 -11 10 -2 0
-4 -4 -4 -10z"/>
<path d="M1830 986 c0 -9 -4 -16 -10 -16 -5 0 -10 -4 -10 -10 0 -16 14 -11 27
10 8 12 9 21 3 25 -6 3 -10 -1 -10 -9z"/>
<path d="M1620 1041 c0 -11 -6 -22 -12 -24 -10 -4 -9 -6 1 -6 13 -1 40 26 41
42 0 4 -7 7 -15 7 -8 0 -15 -9 -15 -19z"/>
<path d="M1560 980 c0 -5 5 -10 10 -10 6 0 10 5 10 10 0 6 -4 10 -10 10 -5 0
-10 -4 -10 -10z"/>
<path d="M2000 720 c0 -5 5 -10 11 -10 5 0 7 5 4 10 -3 6 -8 10 -11 10 -2 0
-4 -4 -4 -10z"/>
<path d="M1340 530 c0 -5 5 -10 10 -10 6 0 10 -7 10 -17 0 -9 3 -14 6 -10 8 8
-5 47 -17 47 -5 0 -9 -4 -9 -10z"/>
</g>
</svg>
